:version 1.10
:name ASF
:units
  mass 1
  length 1
  angle deg
:documentation
  ASF file generated by Kaydara
:root
  axis xyz
  order  tx ty tz rx ry rz
  position 0 0 0
  orientation 0 0 0
:bonedata
  begin
    id 1
    name RightUpLegDummy
    direction -0.65628 -0.754516 0.00165102
    length 4.76918
    axis 0 0 0 xyz
  end
  begin
    id 2
    name RightUpLeg
    direction -0.145584 -0.923362 0.355256
    length 17.9961
    axis -24.7611 -13.1006 1.78531 xyz
    dof rx ry rz
  end
  begin
    id 3
    name RightLeg
    direction 0.263379 0.172355 -0.949171
    length 13.3386
    axis 89.6202 -21.1929 12.3855 xyz
    dof rx ry rz
  end
  begin
    id 4
    name RightFoot
    direction 0.224283 -0.968777 -0.105675
    length 5.86697
    axis 56.995 -39.6905 17.3365 xyz
    dof rx ry rz
  end
  begin
    id 5
    name RightToes
    direction -0.0806345 -0.9037 0.420506
    length 4.75197
    axis 146.825 -39.7828 17.6019 xyz
    dof rx ry rz
  end
  begin
    id 6
    name SpineDummy
    direction -3.39852e-014 1 9.33296e-014
    length 8.13779
    axis 0 0 0 xyz
  end
  begin
    id 7
    name Spine
    direction -0.156609 0.733703 0.661176
    length 7.14978
    axis 41.2365 5.68757 17.0844 xyz
    dof rx ry rz
  end
  begin
    id 8
    name Spine1
    direction 0 0 0
    length 0
    axis 42.8809 47.8308 -3.36039 xyz
    dof rx ry rz
  end
  begin
    id 9
    name HEadDummy
    direction 0.546431 0.701947 0.456819
    length 3.55512
    axis 42.8809 47.8308 -3.36039 xyz
  end
  begin
    id 10
    name HEad
    direction 0.23444 0.828559 0.508457
    length 7.35827
    axis 51.1864 49.2662 27.4903 xyz
    dof rx ry rz
  end
  begin
    id 11
    name LeftShoulder1Dummy
    direction 0.431183 0.475873 -0.766568
    length 2.49352
    axis 42.8809 47.8308 -3.36039 xyz
  end
  begin
    id 12
    name LeftShoulder1
    direction 0.268187 -0.383402 -0.883786
    length 4.48604
    axis -119.517 0.106469 35.1736 xyz
    dof rx ry rz
  end
  begin
    id 13
    name LeftArm
    direction 0.380567 -0.703221 -0.600541
    length 10.1142
    axis -5.41825 36.2925 7.8293 xyz
    dof rx ry rz
  end
  begin
    id 14
    name LeftForeArm
    direction 0.541071 -0.732356 -0.413396
    length 9.39839
    axis 4.65387 33.7604 7.81644 xyz
    dof rx ry rz
  end
  begin
    id 15
    name LeftHand
    direction 0.847511 -0.389379 -0.360707
    length 3.66142
    axis 7.65593 21.1436 -24.6758 xyz
    dof rx ry rz
  end
  begin
    id 16
    name RightShoulderDummy
    direction -0.692546 0.541855 0.476208
    length 2.49352
    axis 42.8809 47.8308 -3.36039 xyz
  end
  begin
    id 17
    name RightShoulder
    direction -0.870808 -0.316653 0.376065
    length 4.48602
    axis 141.571 51.133 -100.254 xyz
    dof rx ry rz
  end
  begin
    id 18
    name RightArm
    direction 0.366897 -0.87275 0.322015
    length 10.1142
    axis 92.3258 71.2036 138.917 xyz
    dof rx ry rz
  end
  begin
    id 19
    name RightForeArm
    direction 0.702487 -0.694568 0.155197
    length 9.39835
    axis 153.863 41.5092 -176.604 xyz
    dof rx ry rz
  end
  begin
    id 20
    name RightHand
    direction 0.79502 -0.601276 0.0800636
    length 3.66142
    axis 154.247 4.59222 142.9 xyz
    dof rx ry rz
  end
  begin
    id 21
    name LeftUpLegDummy
    direction 0.65628 -0.754516 0.00165102
    length 4.76919
    axis 0 0 0 xyz
  end
  begin
    id 22
    name LeftUpLeg
    direction -0.1277 -0.689368 0.713067
    length 17.9961
    axis -48.3385 -17.8675 0.791927 xyz
    dof rx ry rz
  end
  begin
    id 23
    name LeftLeg
    direction 0.109849 -0.991246 -0.0732378
    length 13.3386
    axis -2.05791 -7.30784 1.72042 xyz
    dof rx ry rz
  end
  begin
    id 24
    name LeftFoot
    direction 0.0448355 -0.272614 0.961078
    length 5.86697
    axis -18.7733 -7.89606 10.2113 xyz
    dof rx ry rz
  end
  begin
    id 25
    name LeftToes
    direction -0.18506 0.293668 0.937823
    length 4.75197
    axis 71.2267 -7.89606 10.2113 xyz
    dof rx ry rz
  end
:hierarchy
  begin
    root RightUpLegDummy SpineDummy LeftUpLegDummy
    RightUpLegDummy RightUpLeg
    RightUpLeg RightLeg
    RightLeg RightFoot
    RightFoot RightToes
    SpineDummy Spine
    Spine Spine1
    Spine1 HEadDummy LeftShoulder1Dummy RightShoulderDummy
    HEadDummy HEad
    LeftShoulder1Dummy LeftShoulder1
    LeftShoulder1 LeftArm
    LeftArm LeftForeArm
    LeftForeArm LeftHand
    RightShoulderDummy RightShoulder
    RightShoulder RightArm
    RightArm RightForeArm
    RightForeArm RightHand
    LeftUpLegDummy LeftUpLeg
    LeftUpLeg LeftLeg
    LeftLeg LeftFoot
    LeftFoot LeftToes
  end

:SAMPLES-PER-SECOND 30
:FULLY-SPECIFIED
:DEGREES
92
root  -3.64386 35.261 3.17259 -166.971 -36.4153 155.7
RightUpLeg  -9.68287 10.5629 3.75696
RightLeg  -53.1528 -24.513 8.5516
RightFoot  8.14498 11.0585 -25.873
RightToes  -1.27222e-014 -6.36111e-015 6.36111e-015
Spine  -24.404 -13.7645 -11.3275
Spine1  12.4945 -8.44821 24.8684
HEad  -29.6045 -62.8606 -0.589968
LeftShoulder1  6.36111e-015 -1.33558e-015 6.49777e-015
LeftArm  31.9146 -33.3384 -38.2817
LeftForeArm  -73.6856 -50.607 57.6472
LeftHand  -3.89379 -10.4014 -10.7292
RightShoulder  -4.77083e-015 -6.36111e-015 -3.18055e-015
RightArm  38.1063 -23.5967 6.86945
RightForeArm  -50.9676 26.441 -64.3449
RightHand  -1.93124 9.41969 6.40014
LeftUpLeg  25.1201 26.3464 15.5751
LeftLeg  4.99674 -20.8366 -3.73558
LeftFoot  -4.55753 4.90073 -19.1095
LeftToes  1.27222e-014 1.09105e-011 6.96064e-012
93
root  -2.9334 36.369 2.77834 -167.209 -32.5792 158.633
RightUpLeg  -11.7538 9.51084 3.23597
RightLeg  -50.9615 -11.3358 -4.7278
RightFoot  17.2123 5.90245 -17.1129
RightToes  -1.27222e-014 -6.36111e-015 6.36111e-015
Spine  -24.7688 -14.2566 -11.5288
Spine1  7.43563 -9.49067 27.8175
HEad  -23.915 -58.7195 -4.66838
LeftShoulder1  6.36111e-015 -1.33558e-015 6.49777e-015
LeftArm  27.4835 -17.9342 -30.2909
LeftForeArm  -72.8041 -50.3124 55.5958
LeftHand  -3.37652 -8.61855 -8.49008
RightShoulder  -4.77083e-015 -6.36111e-015 -3.18055e-015
RightArm  43.6006 -32.0286 -6.95865
RightForeArm  -63.9301 18.1977 -65.3008
RightHand  -1.57086 7.44442 4.40014
LeftUpLeg  28.0424 26.8413 21.8354
LeftLeg  -3.40336 -20.0193 -1.69782
LeftFoot  1.52009 8.79992 -27.8785
LeftToes  1.27222e-014 1.09105e-011 6.96064e-012
94
root  -2.38401 37.2745 2.21841 -167.884 -28.7643 161.955
RightUpLeg  -11.9618 10.2647 2.25655
RightLeg  -53.5686 -4.52984 -12.4288
RightFoot  19.0559 -0.897172 -6.78597
RightToes  -1.27222e-014 -6.36111e-015 6.36111e-015
Spine  -25.8757 -15.3054 -12.2147
Spine1  2.68877 -10.7905 32.9126
HEad  -15.171 -53.297 -11.3394
LeftShoulder1  6.36111e-015 -1.33558e-015 6.49777e-015
LeftArm  27.0337 -2.35414 -23.2533
LeftForeArm  -71.2023 -50.7982 54.7433
LeftHand  -2.80736 -6.81255 -8.20835
RightShoulder  -4.77083e-015 -6.36111e-015 -3.18055e-015
RightArm  55.2301 -36.4037 -24.4904
RightForeArm  -77.5458 11.3849 -60.9786
RightHand  -1.39989 6.86208 3.04201
LeftUpLeg  31.2166 25.4594 27.1285
LeftLeg  -7.9111 -10.2386 -1.01259
LeftFoot  4.21702 9.69882 -28.3731
LeftToes  1.27222e-014 1.09105e-011 6.96064e-012
95
root  -1.97131 37.659 1.5502 -169.144 -25.0843 164.964
RightUpLeg  -11.1002 12.4246 1.10458
RightLeg  -56.6527 -9.32285 -7.44552
RightFoot  12.5552 -1.24942 -3.76417
RightToes  -1.27222e-014 -6.36111e-015 6.36111e-015
Spine  -27.0149 -16.6087 -12.7692
Spine1  -0.92597 -12.047 38.3867
HEad  -9.47798 -46.6677 -16.7019
LeftShoulder1  6.36111e-015 -1.33558e-015 6.49777e-015
LeftArm  29.8311 9.14411 -16.6813
LeftForeArm  -64.663 -50.732 47.0418
LeftHand  -2.77514 -6.73516 -7.72389
RightShoulder  -4.77083e-015 -6.36111e-015 -3.18055e-015
RightArm  69.8181 -34.9887 -44.0114
RightForeArm  -90.5115 8.19081 -54.4523
RightHand  -1.6383 8.24817 3.60595
LeftUpLeg  33.5272 20.0266 28.51
LeftLeg  -4.48208 0.702911 -0.696757
LeftFoot  3.59776 7.24858 -21.7414
LeftToes  1.27222e-014 1.09105e-011 6.96064e-012
96
root  -1.68542 37.509 0.893844 -170.18 -21.2423 167.296
RightUpLeg  -12.4209 16.0867 -0.904653
RightLeg  -62.103 -20.7362 7.88593
RightFoot  10.7593 2.63571 -10.0248
RightToes  -1.27222e-014 -6.36111e-015 6.36111e-015
Spine  -28.4324 -17.0527 -12.0079
Spine1  -3.32151 -12.8388 42.618
HEad  -6.96375 -40.1201 -20.6487
LeftShoulder1  6.36111e-015 -1.33558e-015 6.49777e-015
LeftArm  34.1243 15.2352 -11.3728
LeftForeArm  -53.3543 -48.5766 33.5183
LeftHand  -3.3427 -8.5058 -6.81853
RightShoulder  -4.77083e-015 -6.36111e-015 -3.18055e-015
RightArm  82.4878 -29.3685 -62.5495
RightForeArm  -100.489 8.23359 -47.3241
RightHand  -1.88277 10.092 2.97629
LeftUpLeg  36.5029 13.3117 27.2419
LeftLeg  4.58202 4.70288 1.39753
LeftFoot  1.27732 5.02983 -16.2217
LeftToes  1.27222e-014 1.09105e-011 6.96064e-012
97
root  -1.46682 37.0003 0.257685 -170.563 -17.4669 169.269
RightUpLeg  -15.7717 20.9231 -4.73539
RightLeg  -66.3865 -25.334 16.0079
RightFoot  16.8027 5.29172 -16.0443
RightToes  -1.27222e-014 -6.36111e-015 6.36111e-015
Spine  -30.6918 -16.1842 -9.70022
Spine1  -3.96945 -12.9793 45.9161
HEad  -5.32608 -34.5168 -24.7098
LeftShoulder1  6.36111e-015 -1.33558e-015 6.49777e-015
LeftArm  38.4169 17.3104 -8.32769
LeftForeArm  -41.4959 -45.0804 22.0521
LeftHand  -3.77324 -9.81432 -6.92819
RightShoulder  -4.77083e-015 -6.36111e-015 -3.18055e-015
RightArm  91.5693 -20.6203 -79.6741
RightForeArm  -106.317 9.95781 -38.651
RightHand  -2.113 11.9001 0.894583
LeftUpLeg  40.6425 7.92352 25.5762
LeftLeg  15.2078 4.09691 3.38558
LeftFoot  -1.14523 3.41744 -11.8979
LeftToes  1.27222e-014 1.09105e-011 6.96064e-012
98
root  -1.20565 36.2047 -0.397766 -171.133 -13.5944 171.53
RightUpLeg  -17.9092 24.2244 -8.14859
RightLeg  -62.8126 -20.2526 7.5114
RightFoot  18.0121 3.73874 -13.7518
RightToes  -1.27222e-014 -6.36111e-015 6.36111e-015
Spine  -32.698 -14.9813 -7.47122
Spine1  -2.97846 -12.7544 49.7856
HEad  -5.28187 -29.2346 -27.8217
LeftShoulder1  6.36111e-015 -1.33558e-015 6.49777e-015
LeftArm  42.3465 17.7931 -7.30886
LeftForeArm  -29.7846 -42.5886 14.7708
LeftHand  -3.65257 -9.46163 -7.36344
RightShoulder  -4.77083e-015 -6.36111e-015 -3.18055e-015
RightArm  95.2531 -10.2884 -91.6915
RightForeArm  -106.909 11.1359 -28.2731
RightHand  -2.30951 13.1172 -0.353378
LeftUpLeg  46.2531 3.73863 24.855
LeftLeg  25.5883 5.37826 6.46637
LeftFoot  -1.78468 2.66335 -9.45806
LeftToes  1.27222e-014 1.09105e-011 6.96064e-012
99
root  -0.802513 35.157 -0.972284 -172.376 -9.27319 174.025
RightUpLeg  -19.0506 24.4498 -8.52866
RightLeg  -56.4455 -11.6048 -4.6737
RightFoot  12.3867 1.76055 -8.95572
RightToes  -1.27222e-014 -6.36111e-015 6.36111e-015
Spine  -32.6386 -15.3734 -7.18005
Spine1  -2.15073 -12.7004 55.5679
HEad  -8.01622 -22.6023 -27.9681
LeftShoulder1  6.36111e-015 -1.33558e-015 6.49777e-015
LeftArm  46.2422 18.981 -7.16933
LeftForeArm  -17.4433 -39.749 8.38884
LeftHand  -3.1125 -7.81841 -6.15653
RightShoulder  -4.77083e-015 -6.36111e-015 -3.18055e-015
RightArm  92.4157 -3.47113 -95.8836
RightForeArm  -102.323 9.1782 -15.9804
RightHand  -2.29289 13.0693 -1.05872
LeftUpLeg  53.6175 0.234607 24.5263
LeftLeg  35.3124 6.57134 10.3909
LeftFoot  -1.11663 2.56577 -8.91742
LeftToes  1.27222e-014 1.09105e-011 6.96064e-012
100
root  -0.268316 34.1968 -1.32875 -173.533 -5.36337 175.697
RightUpLeg  -20.2843 22.8301 -6.1108
RightLeg  -50.763 -7.80066 -8.31948
RightFoot  7.24957 2.93245 -9.48532
RightToes  -1.27222e-014 -6.36111e-015 6.36111e-015
Spine  -30.3361 -18.6034 -9.69443
Spine1  -3.01598 -13.302 63.0826
HEad  -10.6788 -13.9828 -26.5247
LeftShoulder1  6.36111e-015 -1.33558e-015 6.49777e-015
LeftArm  50.1173 21.8397 -6.97011
LeftForeArm  -7.6896 -34.3011 2.91523
LeftHand  -2.18798 -5.27165 -3.80116
RightShoulder  -4.77083e-015 -6.36111e-015 -3.18055e-015
RightArm  84.7503 -2.29564 -95.2885
RightForeArm  -96.2534 4.27614 -6.4204
RightHand  -2.41174 13.6929 -1.10628
LeftUpLeg  60.6765 -1.68882 22.6745
LeftLeg  44.0255 6.2641 13.6625
LeftFoot  -2.17496 1.86377 -6.68159
LeftToes  1.27222e-014 1.09105e-011 6.96064e-012
